<svg width="21" height="20" viewBox="0 0 21 20" fill="none" xmlns="http://www.w3.org/2000/svg">
<mask id="mask0_17_23" style="mask-type:alpha" maskUnits="userSpaceOnUse" x="0" y="0" width="21" height="20">
<rect x="0.931274" width="20" height="20" fill="#D9D9D9"/>
</mask>
<g mask="url(#mask0_17_23)">
<path d="M8.81021 1.72718C9.36672 -0.475148 12.4958 -0.475148 13.0523 1.72718C13.3863 3.04906 14.835 3.74671 16.0767 3.18368C18.1456 2.24564 20.0965 4.69205 18.7216 6.50027C17.8964 7.5856 18.2542 9.15319 19.4686 9.77299C21.4919 10.8056 20.7956 13.8562 18.5247 13.9087C17.1616 13.9402 16.1591 15.1973 16.4317 16.5332C16.8858 18.7589 14.0666 20.1166 12.6097 18.3738C11.7352 17.3278 10.1273 17.3278 9.25281 18.3738C7.79586 20.1166 4.97667 18.7589 5.43083 16.5332C5.70343 15.1973 4.70091 13.9402 3.33784 13.9087C1.0669 13.8562 0.370618 10.8056 2.39389 9.77299C3.60831 9.15319 3.9661 7.5856 3.14087 6.50027C1.766 4.69205 3.71694 2.24564 5.78576 3.18368C7.02752 3.74671 8.47619 3.04906 8.81021 1.72718Z" fill="#02C266"/>
<path d="M7.59796 8.8435L10.7726 12.3809L15.217 6.66663" stroke="white" stroke-width="2" stroke-linecap="round"/>
</g>
</svg>
